<svg width="26" height="26" viewBox="0 0 26 26" fill="none" xmlns="http://www.w3.org/2000/svg">
<path d="M13 15.6833L3.60837 25.075C3.25698 25.4264 2.80975 25.6021 2.2667 25.6021C1.72364 25.6021 1.27642 25.4264 0.925032 25.075C0.573643 24.7236 0.397949 24.2764 0.397949 23.7333C0.397949 23.1903 0.573643 22.7431 0.925032 22.3917L10.3167 13L0.925032 3.60834C0.573643 3.25695 0.397949 2.80972 0.397949 2.26667C0.397949 1.72361 0.573643 1.27639 0.925032 0.925001C1.27642 0.573612 1.72364 0.397919 2.2667 0.397919C2.80975 0.397919 3.25698 0.573612 3.60837 0.925001L13 10.3167L22.3917 0.925001C22.7431 0.573612 23.1903 0.397919 23.7334 0.397919C24.2764 0.397919 24.7236 0.573612 25.075 0.925001C25.4264 1.27639 25.6021 1.72361 25.6021 2.26667C25.6021 2.80972 25.4264 3.25695 25.075 3.60834L15.6834 13L25.075 22.3917C25.4264 22.7431 25.6021 23.1903 25.6021 23.7333C25.6021 24.2764 25.4264 24.7236 25.075 25.075C24.7236 25.4264 24.2764 25.6021 23.7334 25.6021C23.1903 25.6021 22.7431 25.4264 22.3917 25.075L13 15.6833Z" fill="#414242"/>
</svg>
