<svg width="119" height="50" viewBox="0 0 119 50" fill="none" xmlns="http://www.w3.org/2000/svg">
<path d="M7.659 30.339H19.389V36H0.519V0.401999H7.659V30.339ZM36.4732 36.459C33.7532 36.459 31.3052 35.864 29.1292 34.674C26.9532 33.45 25.2362 31.733 23.9782 29.523C22.7542 27.313 22.1422 24.763 22.1422 21.873C22.1422 18.983 22.7712 16.433 24.0292 14.223C25.3212 12.013 27.0722 10.313 29.2822 9.123C31.4922 7.899 33.9572 7.287 36.6772 7.287C39.3972 7.287 41.8622 7.899 44.0722 9.123C46.2822 10.313 48.0162 12.013 49.2742 14.223C50.5662 16.433 51.2122 18.983 51.2122 21.873C51.2122 24.763 50.5492 27.313 49.2232 29.523C47.9312 31.733 46.1632 33.45 43.9192 34.674C41.7092 35.864 39.2272 36.459 36.4732 36.459ZM36.4732 30.237C37.7652 30.237 38.9722 29.931 40.0942 29.319C41.2502 28.673 42.1682 27.721 42.8482 26.463C43.5282 25.205 43.8682 23.675 43.8682 21.873C43.8682 19.187 43.1542 17.13 41.7262 15.702C40.3322 14.24 38.6152 13.509 36.5752 13.509C34.5352 13.509 32.8182 14.24 31.4242 15.702C30.0642 17.13 29.3842 19.187 29.3842 21.873C29.3842 24.559 30.0472 26.633 31.3732 28.095C32.7332 29.523 34.4332 30.237 36.4732 30.237ZM67.5167 7.287C69.6247 7.287 71.4777 7.712 73.0757 8.562C74.6737 9.378 75.9317 10.449 76.8497 11.775V7.746H84.0407V36.204C84.0407 38.822 83.5137 41.151 82.4597 43.191C81.4057 45.265 79.8247 46.897 77.7167 48.087C75.6087 49.311 73.0587 49.923 70.0667 49.923C66.0547 49.923 62.7567 48.988 60.1727 47.118C57.6227 45.248 56.1777 42.698 55.8377 39.468H62.9267C63.3007 40.76 64.0997 41.78 65.3237 42.528C66.5817 43.31 68.0947 43.701 69.8627 43.701C71.9367 43.701 73.6197 43.072 74.9117 41.814C76.2037 40.59 76.8497 38.72 76.8497 36.204V31.818C75.9317 33.144 74.6567 34.249 73.0247 35.133C71.4267 36.017 69.5907 36.459 67.5167 36.459C65.1367 36.459 62.9607 35.847 60.9887 34.623C59.0167 33.399 57.4527 31.682 56.2967 29.472C55.1747 27.228 54.6137 24.661 54.6137 21.771C54.6137 18.915 55.1747 16.382 56.2967 14.172C57.4527 11.962 58.9997 10.262 60.9377 9.072C62.9097 7.882 65.1027 7.287 67.5167 7.287ZM76.8497 21.873C76.8497 20.139 76.5097 18.66 75.8297 17.436C75.1497 16.178 74.2317 15.226 73.0757 14.58C71.9197 13.9 70.6787 13.56 69.3527 13.56C68.0267 13.56 66.8027 13.883 65.6807 14.529C64.5587 15.175 63.6407 16.127 62.9267 17.385C62.2467 18.609 61.9067 20.071 61.9067 21.771C61.9067 23.471 62.2467 24.967 62.9267 26.259C63.6407 27.517 64.5587 28.486 65.6807 29.166C66.8367 29.846 68.0607 30.186 69.3527 30.186C70.6787 30.186 71.9197 29.863 73.0757 29.217C74.2317 28.537 75.1497 27.585 75.8297 26.361C76.5097 25.103 76.8497 23.607 76.8497 21.873ZM103.56 36.459C100.84 36.459 98.3921 35.864 96.2161 34.674C94.0401 33.45 92.3231 31.733 91.0651 29.523C89.8411 27.313 89.2291 24.763 89.2291 21.873C89.2291 18.983 89.8581 16.433 91.1161 14.223C92.4081 12.013 94.1591 10.313 96.3691 9.123C98.5791 7.899 101.044 7.287 103.764 7.287C106.484 7.287 108.949 7.899 111.159 9.123C113.369 10.313 115.103 12.013 116.361 14.223C117.653 16.433 118.299 18.983 118.299 21.873C118.299 24.763 117.636 27.313 116.31 29.523C115.018 31.733 113.25 33.45 111.006 34.674C108.796 35.864 106.314 36.459 103.56 36.459ZM103.56 30.237C104.852 30.237 106.059 29.931 107.181 29.319C108.337 28.673 109.255 27.721 109.935 26.463C110.615 25.205 110.955 23.675 110.955 21.873C110.955 19.187 110.241 17.13 108.813 15.702C107.419 14.24 105.702 13.509 103.662 13.509C101.622 13.509 99.9051 14.24 98.5111 15.702C97.1511 17.13 96.4711 19.187 96.4711 21.873C96.4711 24.559 97.1341 26.633 98.4601 28.095C99.8201 29.523 101.52 30.237 103.56 30.237Z" fill="#3D7199"/>
</svg>
