<svg width="30" height="30" viewBox="0 0 30 30" fill="none" xmlns="http://www.w3.org/2000/svg">
<path d="M29.6234 2.14795L6.48608 25.279C6.98629 25.5228 7.53493 25.6509 8.09135 25.6538H12.0539C12.3854 25.6529 12.7035 25.7847 12.9372 26.0199L15.0846 28.1661C16.2492 29.3387 17.8331 29.9987 19.4857 30C20.1681 29.9993 20.8457 29.8875 21.492 29.6689C23.7202 28.9384 25.3408 27.0069 25.6733 24.6857L29.8945 4.63522C30.096 3.79977 30.0002 2.92028 29.6234 2.14795Z" fill="#605E5E"/>
<path d="M25.4001 0.096753L5.39843 4.31051C1.98083 4.78003 -0.409057 7.93118 0.0604653 11.3488C0.24592 12.6984 0.867519 13.9505 1.83057 14.9141L3.9768 17.0603C4.21139 17.2949 4.34309 17.6131 4.34285 17.9448V21.9074C4.34572 22.4638 4.47385 23.0125 4.71763 23.5127L27.8512 0.375374C27.091 0.00177106 26.2248 -0.0966658 25.4001 0.096753Z" fill="#605E5E"/>
</svg>
